<?xml version="1.0" encoding="UTF-8"?>
<svg width="24px" height="24px" viewBox="0 0 24 24" version="1.1" xmlns="http://www.w3.org/2000/svg" xmlns:xlink="http://www.w3.org/1999/xlink">
    <!-- Generator: Sketch 55.2 (78181) - https://sketchapp.com -->
    <title>icon-help-nor</title>
    <desc>Created with Sketch.</desc>
    <g id="icon-help-nor" stroke="none" stroke-width="1" fill="none" fill-rule="evenodd">
        <path d="M12,20.75 C7.16750844,20.75 3.25,16.8324916 3.25,12 C3.25,7.16750844 7.16750844,3.25 12,3.25 C16.8324916,3.25 20.75,7.16750844 20.75,12 C20.75,16.8324916 16.8324916,20.75 12,20.75 Z M12,19.25 C16.0040644,19.25 19.25,16.0040644 19.25,12 C19.25,7.99593556 16.0040644,4.75 12,4.75 C7.99593556,4.75 4.75,7.99593556 4.75,12 C4.75,16.0040644 7.99593556,19.25 12,19.25 Z M12,7 C12.4142136,7 12.75,7.33578644 12.75,7.75 L12.75,13.25 C12.75,13.6642136 12.4142136,14 12,14 C11.5857864,14 11.25,13.6642136 11.25,13.25 L11.25,7.75 C11.25,7.33578644 11.5857864,7 12,7 Z M12,16.8 C11.5029437,16.8 11.1,16.3970563 11.1,15.9 C11.1,15.4029437 11.5029437,15 12,15 C12.4970563,15 12.9,15.4029437 12.9,15.9 C12.9,16.3970563 12.4970563,16.8 12,16.8 Z" id="形状结合" fill="#A3AAB3" fill-rule="nonzero"></path>
    </g>
</svg>